<svg width="20" height="20" viewBox="0 0 20 20" fill="none" xmlns="http://www.w3.org/2000/svg">
<path fill-rule="evenodd" clip-rule="evenodd" d="M5.83333 13.3333C5.83333 12.875 6.20833 12.5 6.66667 12.5C7.125 12.5 7.5 12.875 7.5 13.3333C7.5 13.7917 7.125 14.1667 6.66667 14.1667C6.20833 14.1667 5.83333 13.7917 5.83333 13.3333ZM10 12.5H13.3333C13.7917 12.5 14.1667 12.875 14.1667 13.3333C14.1667 13.7917 13.7917 14.1667 13.3333 14.1667H10C9.54167 14.1667 9.16667 13.7917 9.16667 13.3333C9.16667 12.875 9.54167 12.5 10 12.5ZM15 16.6667H5C4.54083 16.6667 4.16667 16.2925 4.16667 15.8333V10.8333H15.8333V15.8333C15.8333 16.2925 15.4592 16.6667 15 16.6667ZM5 4.99999H5.83333V5.83332C5.83333 6.29166 6.20833 6.66666 6.66667 6.66666C7.125 6.66666 7.5 6.29166 7.5 5.83332V4.99999H12.5V5.83332C12.5 6.29166 12.875 6.66666 13.3333 6.66666C13.7917 6.66666 14.1667 6.29166 14.1667 5.83332V4.99999H15C15.4592 4.99999 15.8333 5.37416 15.8333 5.83332V9.16666H4.16667V5.83332C4.16667 5.37416 4.54083 4.99999 5 4.99999ZM15 3.33332H14.1667V2.49999C14.1667 2.04166 13.7917 1.66666 13.3333 1.66666C12.875 1.66666 12.5 2.04166 12.5 2.49999V3.33332H7.5V2.49999C7.5 2.04166 7.125 1.66666 6.66667 1.66666C6.20833 1.66666 5.83333 2.04166 5.83333 2.49999V3.33332H5C3.62167 3.33332 2.5 4.45499 2.5 5.83332V15.8333C2.5 17.2117 3.62167 18.3333 5 18.3333H15C16.3783 18.3333 17.5 17.2117 17.5 15.8333V5.83332C17.5 4.45499 16.3783 3.33332 15 3.33332Z" fill="#5CB0FF"/>
<mask id="mask0" mask-type="alpha" maskUnits="userSpaceOnUse" x="2" y="1" width="16" height="18">
<path fill-rule="evenodd" clip-rule="evenodd" d="M5.83333 13.3333C5.83333 12.875 6.20833 12.5 6.66667 12.5C7.125 12.5 7.5 12.875 7.5 13.3333C7.5 13.7917 7.125 14.1667 6.66667 14.1667C6.20833 14.1667 5.83333 13.7917 5.83333 13.3333ZM10 12.5H13.3333C13.7917 12.5 14.1667 12.875 14.1667 13.3333C14.1667 13.7917 13.7917 14.1667 13.3333 14.1667H10C9.54167 14.1667 9.16667 13.7917 9.16667 13.3333C9.16667 12.875 9.54167 12.5 10 12.5ZM15 16.6667H5C4.54083 16.6667 4.16667 16.2925 4.16667 15.8333V10.8333H15.8333V15.8333C15.8333 16.2925 15.4592 16.6667 15 16.6667ZM5 4.99999H5.83333V5.83332C5.83333 6.29166 6.20833 6.66666 6.66667 6.66666C7.125 6.66666 7.5 6.29166 7.5 5.83332V4.99999H12.5V5.83332C12.5 6.29166 12.875 6.66666 13.3333 6.66666C13.7917 6.66666 14.1667 6.29166 14.1667 5.83332V4.99999H15C15.4592 4.99999 15.8333 5.37416 15.8333 5.83332V9.16666H4.16667V5.83332C4.16667 5.37416 4.54083 4.99999 5 4.99999ZM15 3.33332H14.1667V2.49999C14.1667 2.04166 13.7917 1.66666 13.3333 1.66666C12.875 1.66666 12.5 2.04166 12.5 2.49999V3.33332H7.5V2.49999C7.5 2.04166 7.125 1.66666 6.66667 1.66666C6.20833 1.66666 5.83333 2.04166 5.83333 2.49999V3.33332H5C3.62167 3.33332 2.5 4.45499 2.5 5.83332V15.8333C2.5 17.2117 3.62167 18.3333 5 18.3333H15C16.3783 18.3333 17.5 17.2117 17.5 15.8333V5.83332C17.5 4.45499 16.3783 3.33332 15 3.33332Z" fill="white"/>
</mask>
<g mask="url(#mask0)">
<rect width="20" height="20" fill="#5CB0FF"/>
</g>
</svg>
