<svg width="20" height="20" viewBox="0 0 20 20" fill="none" xmlns="http://www.w3.org/2000/svg">
<path fill-rule="evenodd" clip-rule="evenodd" d="M14.8002 12.95L10.0002 15.7058L5.20023 12.95L6.6119 12.3492L9.58523 14.0558C9.71357 14.13 9.8569 14.1667 10.0002 14.1667C10.1436 14.1667 10.2861 14.13 10.4152 14.0558L13.3886 12.3483L14.8002 12.95ZM9.58523 10.7225C9.71357 10.7967 9.8569 10.8333 10.0002 10.8333C10.1436 10.8333 10.2861 10.7967 10.4152 10.7225L13.3886 9.015L14.8002 9.61667L10.0002 12.3725L5.20023 9.61667L6.6119 9.015L9.58523 10.7225ZM10.0002 4.23916L14.8002 6.28333L10.0002 9.03916L5.20023 6.28333L10.0002 4.23916ZM17.4986 9.45667C17.4794 9.14083 17.2836 8.86333 16.9927 8.73916L15.1994 7.97583L17.0819 6.895C17.3561 6.73833 17.5169 6.43917 17.4986 6.12333C17.4794 5.80833 17.2836 5.53 16.9927 5.40583L10.3261 2.56667C10.1177 2.4775 9.8819 2.4775 9.67357 2.56667L3.0069 5.40583C2.71607 5.53 2.52023 5.80833 2.5019 6.12333C2.48273 6.43917 2.6444 6.73833 2.91857 6.895L4.80023 7.97583L3.0069 8.73916C2.71607 8.86333 2.52023 9.14083 2.5019 9.45667C2.48273 9.7725 2.6444 10.0717 2.91857 10.2283L4.80023 11.3092L3.0069 12.0725C2.71607 12.1967 2.52023 12.4742 2.5019 12.79C2.48273 13.1058 2.6444 13.405 2.91857 13.5617L9.58523 17.3892C9.71357 17.4633 9.8569 17.5 10.0002 17.5C10.1436 17.5 10.2861 17.4633 10.4152 17.3892L17.0819 13.5617C17.3561 13.405 17.5169 13.1058 17.4986 12.79C17.4794 12.475 17.2836 12.1967 16.9936 12.0725L15.2002 11.3083L17.0819 10.2283C17.3561 10.0717 17.5169 9.7725 17.4986 9.45667Z" fill="#5CB0FF"/>
<mask id="mask0" mask-type="alpha" maskUnits="userSpaceOnUse" x="2" y="2" width="16" height="16">
<path fill-rule="evenodd" clip-rule="evenodd" d="M14.8002 12.95L10.0002 15.7058L5.20023 12.95L6.6119 12.3492L9.58523 14.0558C9.71357 14.13 9.8569 14.1667 10.0002 14.1667C10.1436 14.1667 10.2861 14.13 10.4152 14.0558L13.3886 12.3483L14.8002 12.95ZM9.58523 10.7225C9.71357 10.7967 9.8569 10.8333 10.0002 10.8333C10.1436 10.8333 10.2861 10.7967 10.4152 10.7225L13.3886 9.015L14.8002 9.61667L10.0002 12.3725L5.20023 9.61667L6.6119 9.015L9.58523 10.7225ZM10.0002 4.23916L14.8002 6.28333L10.0002 9.03916L5.20023 6.28333L10.0002 4.23916ZM17.4986 9.45667C17.4794 9.14083 17.2836 8.86333 16.9927 8.73916L15.1994 7.97583L17.0819 6.895C17.3561 6.73833 17.5169 6.43917 17.4986 6.12333C17.4794 5.80833 17.2836 5.53 16.9927 5.40583L10.3261 2.56667C10.1177 2.4775 9.8819 2.4775 9.67357 2.56667L3.0069 5.40583C2.71607 5.53 2.52023 5.80833 2.5019 6.12333C2.48273 6.43917 2.6444 6.73833 2.91857 6.895L4.80023 7.97583L3.0069 8.73916C2.71607 8.86333 2.52023 9.14083 2.5019 9.45667C2.48273 9.7725 2.6444 10.0717 2.91857 10.2283L4.80023 11.3092L3.0069 12.0725C2.71607 12.1967 2.52023 12.4742 2.5019 12.79C2.48273 13.1058 2.6444 13.405 2.91857 13.5617L9.58523 17.3892C9.71357 17.4633 9.8569 17.5 10.0002 17.5C10.1436 17.5 10.2861 17.4633 10.4152 17.3892L17.0819 13.5617C17.3561 13.405 17.5169 13.1058 17.4986 12.79C17.4794 12.475 17.2836 12.1967 16.9936 12.0725L15.2002 11.3083L17.0819 10.2283C17.3561 10.0717 17.5169 9.7725 17.4986 9.45667Z" fill="white"/>
</mask>
<g mask="url(#mask0)">
<rect width="20" height="20" fill="#ffffff"/>
</g>
</svg>
