<?xml version="1.0" encoding="iso-8859-1"?>
<!-- Generator: Adobe Illustrator 19.0.0, SVG Export Plug-In . SVG Version: 6.00 Build 0)  -->
<svg xmlns="http://www.w3.org/2000/svg" xmlns:xlink="http://www.w3.org/1999/xlink" version="1.1" id="Capa_1" x="0px" y="0px" viewBox="0 0 512 512" style="enable-background:new 0 0 512 512;" xml:space="preserve" width="512px" height="512px">
<g>
	<g>
		<path d="M504.527,67.909c-8.611-6.92-21.2-5.547-28.118,3.063L210.291,402.169c-3.612,3.863-8.494,6.101-13.797,6.314    c-5.459,0.22-10.629-1.73-14.523-5.431L33.839,261.061c-7.975-7.643-20.634-7.374-28.278,0.599    c-7.643,7.974-7.375,20.634,0.599,28.278l148.191,142.048c11.26,10.703,25.83,16.515,41.268,16.515    c0.825,0,1.655-0.017,2.484-0.051c16.352-0.657,31.371-7.734,42.288-19.926c0.237-0.265,0.467-0.537,0.691-0.814L507.59,96.027    C514.508,87.416,513.137,74.828,504.527,67.909z" fill="#555555"/>
	</g>
</g>
<g>
</g>
<g>
</g>
<g>
</g>
<g>
</g>
<g>
</g>
<g>
</g>
<g>
</g>
<g>
</g>
<g>
</g>
<g>
</g>
<g>
</g>
<g>
</g>
<g>
</g>
<g>
</g>
<g>
</g>
</svg>
