<svg width="20" height="24" viewBox="0 0 20 24" fill="none" xmlns="http://www.w3.org/2000/svg">
<path d="M18.9248 0H6.80025C6.56981 0 6.34261 0.0940313 6.17939 0.257203L0.45398 5.98261C0.287715 6.14887 0.196777 6.37697 0.196777 6.60347V23.122C0.196777 23.6069 0.589918 24 1.07484 24H18.9248C19.4098 24 19.8029 23.6069 19.8029 23.1219V0.878062C19.8029 0.393141 19.4098 0 18.9248 0ZM5.92218 2.99784V5.72536H3.19467C3.48361 5.43642 5.63306 3.28697 5.92218 2.99784ZM18.0468 22.2439H1.95286V7.48148H6.8002C7.28512 7.48148 7.67826 7.08834 7.67826 6.60342V1.75608H18.0468V22.2439H18.0468Z" fill="#1A86D0"/>
<path d="M13.7286 9.37854H6.27113C5.78621 9.37854 5.39307 9.77168 5.39307 10.2566C5.39307 10.7415 5.78621 11.1347 6.27113 11.1347H13.7286C14.2135 11.1347 14.6066 10.7415 14.6066 10.2566C14.6066 9.77168 14.2135 9.37854 13.7286 9.37854Z" fill="#1A86D0"/>
<path d="M15.1269 13.7733H4.87318C4.38826 13.7733 3.99512 14.1665 3.99512 14.6514C3.99512 15.1363 4.38826 15.5294 4.87318 15.5294H15.1269C15.6118 15.5294 16.005 15.1363 16.005 14.6514C16.005 14.1665 15.6118 13.7733 15.1269 13.7733Z" fill="#1A86D0"/>
<path d="M15.1269 16.8483H4.87318C4.38826 16.8483 3.99512 17.2415 3.99512 17.7264C3.99512 18.2113 4.38826 18.6045 4.87318 18.6045H15.1269C15.6118 18.6045 16.005 18.2113 16.005 17.7264C16.005 17.2415 15.6118 16.8483 15.1269 16.8483Z" fill="#1A86D0"/>
</svg>
