<svg width="24" height="24" viewBox="0 0 24 24" fill="none" xmlns="http://www.w3.org/2000/svg">
<path d="M0 21.4696C0 22.8672 1.13772 24 2.53045 24H21.4696C22.8672 24 24 22.8623 24 21.4696V2.53045C24 1.13282 22.8623 0 21.4696 0H2.53045C1.13282 0 0 1.13772 0 2.53045V21.4696ZM21.4696 22.7985H2.53045C1.79975 22.7985 1.20147 22.2002 1.20147 21.4696V18.3065L5.75235 13.7556L9.64119 17.6445C9.87658 17.8799 10.2542 17.8799 10.4896 17.6445L17.5121 10.622L22.7985 15.9085V21.4696C22.7985 22.2002 22.2002 22.7985 21.4696 22.7985ZM2.53045 1.20147H21.4696C22.2002 1.20147 22.7985 1.79975 22.7985 2.53045V14.2068L17.9338 9.34696C17.6984 9.11157 17.3208 9.11157 17.0854 9.34696L10.0629 16.3694L6.17409 12.4806C5.9387 12.2452 5.5611 12.2452 5.3257 12.4806L1.20147 16.6048V2.53045C1.20147 1.79975 1.79975 1.20147 2.53045 1.20147Z" fill="#1A86D0"/>
<path d="M7.4392 9.61667C9.12617 9.61667 10.4944 8.24356 10.4944 6.5615C10.4944 4.87944 9.12126 3.50633 7.4392 3.50633C5.75714 3.50633 4.38403 4.87944 4.38403 6.5615C4.38403 8.24356 5.75224 9.61667 7.4392 9.61667ZM7.4392 4.7078C8.46413 4.7078 9.2929 5.54148 9.2929 6.5615C9.2929 7.58153 8.45923 8.4152 7.4392 8.4152C6.41918 8.4152 5.5855 7.58153 5.5855 6.5615C5.5855 5.54148 6.41427 4.7078 7.4392 4.7078Z" fill="#1A86D0"/>
</svg>
