<svg width="24" height="23" viewBox="0 0 24 23" fill="none" xmlns="http://www.w3.org/2000/svg">
<path d="M12.686 9.57929C12.4225 9.84276 12.4225 10.2653 12.686 10.5288C13.7746 11.6174 13.7746 13.3871 12.686 14.4757L6.96935 20.1924C5.8807 21.281 4.11102 21.281 3.02237 20.1924L2.16239 19.3324C1.07374 18.2438 1.07374 16.4741 2.16239 15.3854L7.87904 9.66877C8.1425 9.40531 8.1425 8.98277 7.87904 8.71931C7.61558 8.45585 7.19304 8.45585 6.92958 8.71931L1.21292 14.436C0.432477 15.2164 0 16.2554 0 17.3589C0 18.4625 0.427506 19.5014 1.21292 20.2819L2.07291 21.1418C2.87821 21.9471 3.93703 22.3498 4.99586 22.3498C6.05468 22.3498 7.1135 21.9471 7.91881 21.1418L13.6355 15.4252C15.2461 13.8146 15.2461 11.1899 13.6355 9.57929C13.377 9.31583 12.9495 9.31583 12.686 9.57929Z" fill="#1A86D0"/>
<path d="M22.7921 2.06794L21.9321 1.20795C20.3215 -0.402651 17.6968 -0.402651 16.0862 1.20795L10.3696 6.92461C8.75897 8.53521 8.75897 11.1599 10.3696 12.7705C10.633 13.034 11.0556 13.034 11.319 12.7705C11.5825 12.507 11.5825 12.0845 11.319 11.821C10.2304 10.7324 10.2304 8.96272 11.319 7.87407L17.0357 2.15742C18.1243 1.06877 19.894 1.06877 20.9826 2.15742L21.8426 3.0174C22.9313 4.10605 22.9313 5.87572 21.8426 6.96437L16.126 12.681C15.8625 12.9445 15.8625 13.367 16.126 13.6305C16.2552 13.7597 16.4292 13.8293 16.5982 13.8293C16.7672 13.8293 16.9412 13.7647 17.0705 13.6305L22.7871 7.91384C23.5676 7.13339 24 6.09445 24 4.99089C24 3.88732 23.5725 2.84838 22.7921 2.06794Z" fill="#1A86D0"/>
</svg>
