<svg width="24" height="24" viewBox="0 0 24 24" fill="currentColor" xmlns="http://www.w3.org/2000/svg">
<path d="M7.00739 12C7.00739 11.5858 7.34317 11.25 7.75739 11.25H11.25V7.75735C11.25 7.34314 11.5858 7.00735 12 7.00735C12.4142 7.00735 12.75 7.34314 12.75 7.75735V11.25H16.2427C16.6569 11.25 16.9927 11.5858 16.9927 12C16.9927 12.4142 16.6569 12.75 16.2427 12.75H12.75V16.2426C12.75 16.6569 12.4142 16.9926 12 16.9926C11.5858 16.9926 11.25 16.6569 11.25 16.2426V12.75H7.75739C7.34317 12.75 7.00739 12.4142 7.00739 12Z" fill="black"/>
<path fill-rule="evenodd" clip-rule="evenodd" d="M7.31673 3.76876C10.4043 3.42368 13.5957 3.42368 16.6832 3.76876C18.5096 3.97288 19.9845 5.41153 20.1994 7.24849C20.5686 10.4054 20.5686 13.5946 20.1994 16.7515C19.9845 18.5885 18.5096 20.0271 16.6832 20.2313C13.5957 20.5763 10.4043 20.5763 7.31673 20.2313C5.49035 20.0271 4.01545 18.5885 3.8006 16.7515C3.43137 13.5946 3.43137 10.4054 3.8006 7.24849C4.01545 5.41153 5.49035 3.97288 7.31673 3.76876ZM16.5166 5.25948C13.5398 4.92677 10.4602 4.92677 7.48334 5.25948C6.33891 5.38738 5.42286 6.29063 5.29045 7.42274C4.93476 10.4639 4.93476 13.5361 5.29045 16.5773C5.42286 17.7094 6.33891 18.6126 7.48334 18.7405C10.4602 19.0732 13.5398 19.0732 16.5166 18.7405C17.6611 18.6126 18.5771 17.7094 18.7095 16.5773C19.0652 13.5361 19.0652 10.4639 18.7095 7.42274C18.5771 6.29063 17.6611 5.38738 16.5166 5.25948Z" fill="black"/>
</svg>
