<svg width="24" height="24" viewBox="0 0 24 24" fill="currentColor" xmlns="http://www.w3.org/2000/svg">
<path fill-rule="evenodd" clip-rule="evenodd" d="M6.06668 3.87389C5.364 3.79535 4.636 3.79535 3.93332 3.87389C3.92027 3.87535 3.90735 3.88125 3.89674 3.89172C3.88638 3.90193 3.88233 3.91226 3.88131 3.92103C3.79746 4.6379 3.79746 5.3621 3.88131 6.07897C3.88233 6.08774 3.88638 6.09807 3.89674 6.10829C3.90735 6.11875 3.92027 6.12466 3.93332 6.12611C4.636 6.20465 5.364 6.20465 6.06668 6.12611C6.07973 6.12466 6.09264 6.11875 6.10326 6.10829C6.11362 6.09807 6.11767 6.08774 6.11869 6.07897C6.20254 5.3621 6.20254 4.6379 6.11869 3.92103C6.11767 3.91226 6.11362 3.90193 6.10326 3.89172C6.09264 3.88125 6.07973 3.87535 6.06668 3.87389ZM3.76671 2.38317C4.58012 2.29226 5.41988 2.29226 6.23329 2.38317C6.94562 2.46278 7.52391 3.02322 7.60854 3.74678C7.70592 4.57942 7.70592 5.42058 7.60854 6.25323C7.52391 6.97678 6.94562 7.53722 6.23329 7.61683C5.41988 7.70774 4.58012 7.70774 3.76671 7.61683C3.05438 7.53722 2.47609 6.97679 2.39146 6.25323C2.29408 5.42058 2.29408 4.57942 2.39146 3.74678C2.47609 3.02322 3.05438 2.46278 3.76671 2.38317Z" fill="black"/>
<path fill-rule="evenodd" clip-rule="evenodd" d="M13.0667 3.87389C12.364 3.79535 11.636 3.79535 10.9333 3.87389C10.9203 3.87535 10.9074 3.88125 10.8967 3.89172C10.8864 3.90193 10.8823 3.91226 10.8813 3.92103C10.7975 4.6379 10.7975 5.3621 10.8813 6.07897C10.8823 6.08774 10.8864 6.09807 10.8967 6.10829C10.9074 6.11875 10.9203 6.12466 10.9333 6.12611C11.636 6.20465 12.364 6.20465 13.0667 6.12611C13.0797 6.12466 13.0926 6.11875 13.1033 6.10829C13.1136 6.09807 13.1177 6.08774 13.1187 6.07897C13.2025 5.3621 13.2025 4.6379 13.1187 3.92103C13.1177 3.91226 13.1136 3.90193 13.1033 3.89172C13.0926 3.88125 13.0797 3.87535 13.0667 3.87389ZM10.7667 2.38317C11.5801 2.29226 12.4199 2.29226 13.2333 2.38317C13.9456 2.46278 14.5239 3.02322 14.6085 3.74678C14.7059 4.57942 14.7059 5.42058 14.6085 6.25323C14.5239 6.97678 13.9456 7.53722 13.2333 7.61683C12.4199 7.70774 11.5801 7.70774 10.7667 7.61683C10.0544 7.53722 9.47609 6.97679 9.39146 6.25323C9.29408 5.42058 9.29408 4.57942 9.39146 3.74678C9.47609 3.02322 10.0544 2.46278 10.7667 2.38317Z" fill="black"/>
<path fill-rule="evenodd" clip-rule="evenodd" d="M20.0667 3.87389C19.364 3.79535 18.636 3.79535 17.9333 3.87389C17.9203 3.87535 17.9074 3.88125 17.8967 3.89172C17.8864 3.90193 17.8823 3.91226 17.8813 3.92103C17.7975 4.6379 17.7975 5.3621 17.8813 6.07897C17.8823 6.08774 17.8864 6.09807 17.8967 6.10829C17.9074 6.11875 17.9203 6.12466 17.9333 6.12611C18.636 6.20465 19.364 6.20465 20.0667 6.12611C20.0797 6.12466 20.0926 6.11875 20.1033 6.10829C20.1136 6.09807 20.1177 6.08774 20.1187 6.07897C20.2025 5.3621 20.2025 4.6379 20.1187 3.92103C20.1177 3.91226 20.1136 3.90193 20.1033 3.89172C20.0926 3.88125 20.0797 3.87535 20.0667 3.87389ZM17.7667 2.38317C18.5801 2.29226 19.4199 2.29226 20.2333 2.38317C20.9456 2.46278 21.5239 3.02322 21.6085 3.74678C21.7059 4.57942 21.7059 5.42058 21.6085 6.25323C21.5239 6.97678 20.9456 7.53722 20.2333 7.61683C19.4199 7.70774 18.5801 7.70774 17.7667 7.61683C17.0544 7.53722 16.4761 6.97679 16.3915 6.25323C16.2941 5.42058 16.2941 4.57942 16.3915 3.74678C16.4761 3.02322 17.0544 2.46278 17.7667 2.38317Z" fill="black"/>
<path fill-rule="evenodd" clip-rule="evenodd" d="M6.06668 10.8739C5.364 10.7954 4.636 10.7954 3.93332 10.8739C3.92027 10.8753 3.90735 10.8813 3.89674 10.8917C3.88638 10.9019 3.88233 10.9123 3.88131 10.921C3.79746 11.6379 3.79746 12.3621 3.88131 13.079C3.88233 13.0877 3.88638 13.0981 3.89674 13.1083C3.90735 13.1187 3.92027 13.1247 3.93332 13.1261C4.636 13.2046 5.364 13.2046 6.06668 13.1261C6.07973 13.1247 6.09264 13.1187 6.10326 13.1083C6.11362 13.0981 6.11767 13.0877 6.11869 13.079C6.20254 12.3621 6.20254 11.6379 6.11869 10.921C6.11767 10.9123 6.11362 10.9019 6.10326 10.8917C6.09264 10.8813 6.07973 10.8753 6.06668 10.8739ZM3.76671 9.38317C4.58012 9.29226 5.41988 9.29226 6.23329 9.38317C6.94562 9.46278 7.52391 10.0232 7.60854 10.7468C7.70592 11.5794 7.70592 12.4206 7.60854 13.2532C7.52391 13.9768 6.94562 14.5372 6.23329 14.6168C5.41988 14.7077 4.58012 14.7077 3.76671 14.6168C3.05438 14.5372 2.47609 13.9768 2.39146 13.2532C2.29408 12.4206 2.29408 11.5794 2.39146 10.7468C2.47609 10.0232 3.05438 9.46278 3.76671 9.38317Z" fill="black"/>
<path fill-rule="evenodd" clip-rule="evenodd" d="M13.0667 10.8739C12.364 10.7954 11.636 10.7954 10.9333 10.8739C10.9203 10.8753 10.9074 10.8813 10.8967 10.8917C10.8864 10.9019 10.8823 10.9123 10.8813 10.921C10.7975 11.6379 10.7975 12.3621 10.8813 13.079C10.8823 13.0877 10.8864 13.0981 10.8967 13.1083C10.9074 13.1187 10.9203 13.1247 10.9333 13.1261C11.636 13.2046 12.364 13.2046 13.0667 13.1261C13.0797 13.1247 13.0926 13.1187 13.1033 13.1083C13.1136 13.0981 13.1177 13.0877 13.1187 13.079C13.2025 12.3621 13.2025 11.6379 13.1187 10.921C13.1177 10.9123 13.1136 10.9019 13.1033 10.8917C13.0926 10.8813 13.0797 10.8753 13.0667 10.8739ZM10.7667 9.38317C11.5801 9.29226 12.4199 9.29226 13.2333 9.38317C13.9456 9.46278 14.5239 10.0232 14.6085 10.7468C14.7059 11.5794 14.7059 12.4206 14.6085 13.2532C14.5239 13.9768 13.9456 14.5372 13.2333 14.6168C12.4199 14.7077 11.5801 14.7077 10.7667 14.6168C10.0544 14.5372 9.47609 13.9768 9.39146 13.2532C9.29408 12.4206 9.29408 11.5794 9.39146 10.7468C9.47609 10.0232 10.0544 9.46278 10.7667 9.38317Z" fill="black"/>
<path fill-rule="evenodd" clip-rule="evenodd" d="M20.0667 10.8739C19.364 10.7954 18.636 10.7954 17.9333 10.8739C17.9203 10.8753 17.9074 10.8813 17.8967 10.8917C17.8864 10.9019 17.8823 10.9123 17.8813 10.921C17.7975 11.6379 17.7975 12.3621 17.8813 13.079C17.8823 13.0877 17.8864 13.0981 17.8967 13.1083C17.9074 13.1187 17.9203 13.1247 17.9333 13.1261C18.636 13.2046 19.364 13.2046 20.0667 13.1261C20.0797 13.1247 20.0926 13.1187 20.1033 13.1083C20.1136 13.0981 20.1177 13.0877 20.1187 13.079C20.2025 12.3621 20.2025 11.6379 20.1187 10.921C20.1177 10.9123 20.1136 10.9019 20.1033 10.8917C20.0926 10.8813 20.0797 10.8753 20.0667 10.8739ZM17.7667 9.38317C18.5801 9.29226 19.4199 9.29226 20.2333 9.38317C20.9456 9.46278 21.5239 10.0232 21.6085 10.7468C21.7059 11.5794 21.7059 12.4206 21.6085 13.2532C21.5239 13.9768 20.9456 14.5372 20.2333 14.6168C19.4199 14.7077 18.5801 14.7077 17.7667 14.6168C17.0544 14.5372 16.4761 13.9768 16.3915 13.2532C16.2941 12.4206 16.2941 11.5794 16.3915 10.7468C16.4761 10.0232 17.0544 9.46278 17.7667 9.38317Z" fill="black"/>
<path fill-rule="evenodd" clip-rule="evenodd" d="M6.06668 17.8739C5.364 17.7954 4.636 17.7954 3.93332 17.8739C3.92027 17.8753 3.90735 17.8813 3.89674 17.8917C3.88638 17.9019 3.88233 17.9123 3.88131 17.921C3.79746 18.6379 3.79746 19.3621 3.88131 20.079C3.88233 20.0877 3.88638 20.0981 3.89674 20.1083C3.90735 20.1187 3.92027 20.1247 3.93332 20.1261C4.636 20.2046 5.364 20.2046 6.06668 20.1261C6.07973 20.1247 6.09264 20.1187 6.10326 20.1083C6.11362 20.0981 6.11767 20.0877 6.11869 20.079C6.20254 19.3621 6.20254 18.6379 6.11869 17.921C6.11767 17.9123 6.11362 17.9019 6.10326 17.8917C6.09264 17.8813 6.07973 17.8753 6.06668 17.8739ZM3.76671 16.3832C4.58012 16.2923 5.41988 16.2923 6.23329 16.3832C6.94562 16.4628 7.52391 17.0232 7.60854 17.7468C7.70592 18.5794 7.70592 19.4206 7.60854 20.2532C7.52391 20.9768 6.94562 21.5372 6.23329 21.6168C5.41988 21.7077 4.58012 21.7077 3.76671 21.6168C3.05438 21.5372 2.47609 20.9768 2.39146 20.2532C2.29408 19.4206 2.29408 18.5794 2.39146 17.7468C2.47609 17.0232 3.05438 16.4628 3.76671 16.3832Z" fill="black"/>
<path fill-rule="evenodd" clip-rule="evenodd" d="M13.0667 17.8739C12.364 17.7954 11.636 17.7954 10.9333 17.8739C10.9203 17.8753 10.9074 17.8813 10.8967 17.8917C10.8864 17.9019 10.8823 17.9123 10.8813 17.921C10.7975 18.6379 10.7975 19.3621 10.8813 20.079C10.8823 20.0877 10.8864 20.0981 10.8967 20.1083C10.9074 20.1187 10.9203 20.1247 10.9333 20.1261C11.636 20.2046 12.364 20.2046 13.0667 20.1261C13.0797 20.1247 13.0926 20.1187 13.1033 20.1083C13.1136 20.0981 13.1177 20.0877 13.1187 20.079C13.2025 19.3621 13.2025 18.6379 13.1187 17.921C13.1177 17.9123 13.1136 17.9019 13.1033 17.8917C13.0926 17.8813 13.0797 17.8753 13.0667 17.8739ZM10.7667 16.3832C11.5801 16.2923 12.4199 16.2923 13.2333 16.3832C13.9456 16.4628 14.5239 17.0232 14.6085 17.7468C14.7059 18.5794 14.7059 19.4206 14.6085 20.2532C14.5239 20.9768 13.9456 21.5372 13.2333 21.6168C12.4199 21.7077 11.5801 21.7077 10.7667 21.6168C10.0544 21.5372 9.47609 20.9768 9.39146 20.2532C9.29408 19.4206 9.29408 18.5794 9.39146 17.7468C9.47609 17.0232 10.0544 16.4628 10.7667 16.3832Z" fill="black"/>
<path fill-rule="evenodd" clip-rule="evenodd" d="M20.0667 17.8739C19.364 17.7954 18.636 17.7954 17.9333 17.8739C17.9203 17.8753 17.9074 17.8813 17.8967 17.8917C17.8864 17.9019 17.8823 17.9123 17.8813 17.921C17.7975 18.6379 17.7975 19.3621 17.8813 20.079C17.8823 20.0877 17.8864 20.0981 17.8967 20.1083C17.9074 20.1187 17.9203 20.1247 17.9333 20.1261C18.636 20.2046 19.364 20.2046 20.0667 20.1261C20.0797 20.1247 20.0926 20.1187 20.1033 20.1083C20.1136 20.0981 20.1177 20.0877 20.1187 20.079C20.2025 19.3621 20.2025 18.6379 20.1187 17.921C20.1177 17.9123 20.1136 17.9019 20.1033 17.8917C20.0926 17.8813 20.0797 17.8753 20.0667 17.8739ZM17.7667 16.3832C18.5801 16.2923 19.4199 16.2923 20.2333 16.3832C20.9456 16.4628 21.5239 17.0232 21.6085 17.7468C21.7059 18.5794 21.7059 19.4206 21.6085 20.2532C21.5239 20.9768 20.9456 21.5372 20.2333 21.6168C19.4199 21.7077 18.5801 21.7077 17.7667 21.6168C17.0544 21.5372 16.4761 20.9768 16.3915 20.2532C16.2941 19.4206 16.2941 18.5794 16.3915 17.7468C16.4761 17.0232 17.0544 16.4628 17.7667 16.3832Z" fill="black"/>
</svg>
