<svg width="24" height="24" viewBox="0 0 24 24" fill="none" xmlns="http://www.w3.org/2000/svg">
<path d="M8.46967 8.46966C8.76256 8.17677 9.23744 8.17677 9.53033 8.46966L12 10.9393L14.4697 8.46967C14.7626 8.17678 15.2374 8.17678 15.5303 8.46967C15.8232 8.76256 15.8232 9.23744 15.5303 9.53033L13.0607 12L15.5303 14.4697C15.8232 14.7626 15.8232 15.2374 15.5303 15.5303C15.2374 15.8232 14.7626 15.8232 14.4697 15.5303L12 13.0607L9.53034 15.5303C9.23744 15.8232 8.76257 15.8232 8.46968 15.5303C8.17678 15.2374 8.17678 14.7626 8.46968 14.4697L10.9393 12L8.46967 9.53032C8.17678 9.23743 8.17678 8.76255 8.46967 8.46966Z" fill="black"/>
<path fill-rule="evenodd" clip-rule="evenodd" d="M7.31673 3.76876C10.4043 3.42368 13.5957 3.42368 16.6832 3.76876C18.5096 3.97288 19.9845 5.41153 20.1994 7.24849C20.5686 10.4054 20.5686 13.5946 20.1994 16.7515C19.9845 18.5885 18.5096 20.0271 16.6832 20.2313C13.5957 20.5763 10.4043 20.5763 7.31673 20.2313C5.49035 20.0271 4.01545 18.5885 3.8006 16.7515C3.43137 13.5946 3.43137 10.4054 3.8006 7.24849C4.01545 5.41153 5.49035 3.97288 7.31673 3.76876ZM16.5166 5.25948C13.5398 4.92677 10.4602 4.92677 7.48334 5.25948C6.33891 5.38738 5.42286 6.29063 5.29045 7.42274C4.93476 10.4639 4.93476 13.5361 5.29045 16.5773C5.42286 17.7094 6.33891 18.6126 7.48334 18.7405C10.4602 19.0732 13.5398 19.0732 16.5166 18.7405C17.6611 18.6126 18.5771 17.7094 18.7095 16.5773C19.0652 13.5361 19.0652 10.4639 18.7095 7.42274C18.5771 6.29063 17.6611 5.38738 16.5166 5.25948Z" fill="black"/>
</svg>
