<svg width="24" height="24" viewBox="0 0 24 24" fill="none" xmlns="http://www.w3.org/2000/svg">
<path d="M8 9.49998C7.30964 9.49998 6.75 10.0596 6.75 10.75C6.75 11.4403 7.30964 12 8 12C8.69036 12 9.25 11.4403 9.25 10.75C9.25 10.0596 8.69036 9.49998 8 9.49998Z" fill="black"/>
<path d="M12 9.49998C11.3096 9.49998 10.75 10.0596 10.75 10.75C10.75 11.4403 11.3096 12 12 12C12.6904 12 13.25 11.4403 13.25 10.75C13.25 10.0596 12.6904 9.49998 12 9.49998Z" fill="black"/>
<path d="M14.75 10.75C14.75 10.0596 15.3096 9.49998 16 9.49998C16.6904 9.49998 17.25 10.0596 17.25 10.75C17.25 11.4403 16.6904 12 16 12C15.3096 12 14.75 11.4403 14.75 10.75Z" fill="black"/>
<path fill-rule="evenodd" clip-rule="evenodd" d="M16.1007 4.59277C13.4065 4.36301 10.6983 4.34967 8.00194 4.5529L7.80871 4.56746C5.23741 4.76126 3.25 6.90409 3.25 9.48269V18C3.25 18.2639 3.38867 18.5083 3.61515 18.6437C3.84163 18.7791 4.12261 18.7855 4.35504 18.6606L8.26583 16.5589C8.44774 16.4611 8.65104 16.41 8.85756 16.41H17.834C18.9661 16.41 19.9362 15.6006 20.1392 14.4868C20.5505 12.2296 20.5829 9.91963 20.2353 7.65173L20.1329 6.9834C19.9464 5.76665 18.951 4.83584 17.7245 4.73124L16.1007 4.59277ZM8.11468 6.04865C10.731 5.85146 13.359 5.8644 15.9733 6.08734L17.597 6.22581C18.1334 6.27155 18.5686 6.67859 18.6502 7.21067L18.7526 7.879C19.075 9.98228 19.0449 12.1246 18.6635 14.218C18.5904 14.6187 18.2413 14.91 17.834 14.91H8.85756C8.40322 14.91 7.95596 15.0225 7.55575 15.2376L4.75 16.7455V9.48269C4.75 7.68878 6.13262 6.19804 7.92144 6.06322L8.11468 6.04865Z" fill="black"/>
</svg>
