<svg width="24" height="24" viewBox="0 0 24 24" fill="none" xmlns="http://www.w3.org/2000/svg">
<path fill-rule="evenodd" clip-rule="evenodd" d="M18.8076 4.95724C17.4735 4.54564 16.0265 4.54564 14.6924 4.95724C14.2409 9.64156 14.2409 14.3584 14.6924 19.0428C16.0265 19.4544 17.4735 19.4544 18.8076 19.0428C19.2591 14.3584 19.2591 9.64156 18.8076 4.95724ZM20.2905 4.70875C20.7648 9.55802 20.7648 14.442 20.2905 19.2913C20.2383 19.8258 19.872 20.2751 19.3662 20.4393C17.6731 20.9889 15.8269 20.9889 14.1338 20.4393C13.628 20.2751 13.2617 19.8258 13.2095 19.2913C12.7352 14.442 12.7352 9.55802 13.2095 4.70875C13.2617 4.1742 13.628 3.72493 14.1338 3.56075C15.8269 3.01113 17.6731 3.01113 19.3662 3.56075C19.872 3.72493 20.2383 4.1742 20.2905 4.70875Z" fill="black"/>
<path fill-rule="evenodd" clip-rule="evenodd" d="M9.30761 4.95724C7.97352 4.54564 6.52648 4.54563 5.19239 4.95724C4.74092 9.64156 4.74092 14.3584 5.19239 19.0428C6.52648 19.4544 7.97352 19.4544 9.30761 19.0428C9.75907 14.3584 9.75907 9.64156 9.30761 4.95724ZM10.7905 4.70875C11.2648 9.55802 11.2648 14.442 10.7905 19.2913C10.7383 19.8258 10.372 20.2751 9.8662 20.4393C8.1731 20.9889 6.32689 20.9889 4.6338 20.4393C4.12803 20.2751 3.76174 19.8258 3.70946 19.2913C3.23523 14.442 3.23523 9.55802 3.70946 4.70875C3.76174 4.1742 4.12803 3.72493 4.6338 3.56075C6.32689 3.01113 8.17311 3.01113 9.8662 3.56075C10.372 3.72493 10.7383 4.1742 10.7905 4.70875Z" fill="black"/>
</svg>
