<svg width="24" height="24" viewBox="0 0 24 24" fill="none" xmlns="http://www.w3.org/2000/svg">
<path fill-rule="evenodd" clip-rule="evenodd" d="M2.80369 8.3533C2.52355 10.9562 2.53604 13.9582 2.92586 16.5505C3.14156 17.9849 4.31223 19.0845 5.7573 19.2102L7.26753 19.3414C10.4166 19.6152 13.5834 19.6152 16.7325 19.3414L18.2427 19.2102C19.6878 19.0845 20.8585 17.9849 21.0742 16.5505C21.464 13.9582 21.4765 10.9564 21.1963 8.35345C21.1601 8.05169 21.1194 7.75034 21.0742 7.44949C20.8585 6.0151 19.6878 4.91545 18.2427 4.78983L16.7325 4.65855C13.5834 4.38481 10.4166 4.38481 7.26753 4.65855L5.7573 4.78983C4.31223 4.91545 3.14156 6.0151 2.92586 7.44949C2.88063 7.75028 2.83991 8.05159 2.80369 8.3533ZM7.39743 6.15292C10.46 5.88669 13.54 5.88669 16.6026 6.15292L18.1128 6.2842C18.8671 6.34977 19.4782 6.92379 19.5908 7.67254C19.6025 7.7503 19.6139 7.82809 19.625 7.90592L14.064 10.9954C12.7804 11.7085 11.2196 11.7085 9.93599 10.9954L4.37505 7.90596C4.38611 7.82812 4.39749 7.75031 4.40918 7.67254C4.52178 6.92379 5.13287 6.34977 5.8872 6.2842L7.39743 6.15292ZM19.8085 9.51989C20.0025 11.7876 19.9299 14.0725 19.5908 16.3274C19.4782 17.0762 18.8671 17.6502 18.1128 17.7158L16.6026 17.8471C13.54 18.1133 10.46 18.1133 7.39743 17.8471L5.8872 17.7158C5.13287 17.6502 4.52178 17.0762 4.40918 16.3274C4.07009 14.0725 3.99753 11.7877 4.1915 9.51992L9.20752 12.3066C10.9442 13.2714 13.0558 13.2714 14.7924 12.3066L19.8085 9.51989Z" fill="black"/>
</svg>
