<svg width="24" height="24" viewBox="0 0 24 24" fill="none" xmlns="http://www.w3.org/2000/svg">
<path fill-rule="evenodd" clip-rule="evenodd" d="M4.95723 5.19239C4.54563 6.52648 4.54563 7.97352 4.95723 9.30761C9.64155 9.75907 14.3584 9.75907 19.0428 9.30761C19.4544 7.97352 19.4544 6.52648 19.0428 5.19239C14.3584 4.74092 9.64155 4.74092 4.95723 5.19239ZM4.70874 3.70946C9.55801 3.23523 14.442 3.23523 19.2912 3.70946C19.8258 3.76174 20.2751 4.12803 20.4392 4.6338C20.9889 6.32689 20.9889 8.1731 20.4392 9.8662C20.2751 10.372 19.8258 10.7383 19.2912 10.7905C14.442 11.2648 9.55801 11.2648 4.70874 10.7905C4.17419 10.7383 3.72492 10.372 3.56074 9.8662C3.01113 8.17311 3.01113 6.32689 3.56074 4.6338C3.72492 4.12803 4.17419 3.76174 4.70874 3.70946Z" fill="black"/>
<path fill-rule="evenodd" clip-rule="evenodd" d="M4.95723 14.6924C4.54563 16.0265 4.54563 17.4735 4.95723 18.8076C9.64155 19.2591 14.3584 19.2591 19.0428 18.8076C19.4544 17.4735 19.4544 16.0265 19.0428 14.6924C14.3584 14.2409 9.64155 14.2409 4.95723 14.6924ZM4.70874 13.2095C9.55801 12.7352 14.442 12.7352 19.2912 13.2095C19.8258 13.2617 20.2751 13.628 20.4392 14.1338C20.9889 15.8269 20.9889 17.6731 20.4392 19.3662C20.2751 19.872 19.8258 20.2383 19.2912 20.2905C14.442 20.7648 9.55801 20.7648 4.70874 20.2905C4.17419 20.2383 3.72492 19.872 3.56074 19.3662C3.01113 17.6731 3.01113 15.8269 3.56074 14.1338C3.72492 13.628 4.17419 13.2617 4.70874 13.2095Z" fill="black"/>
</svg>
