<?xml version="1.0" encoding="UTF-8"?>
<svg width="20px" height="20px" viewBox="0 0 20 20" version="1.1" xmlns="http://www.w3.org/2000/svg" xmlns:xlink="http://www.w3.org/1999/xlink">
    <!-- Generator: Sketch 52.4 (67378) - http://www.bohemiancoding.com/sketch -->
    <title>dribble-logo</title>
    <desc>Created with Sketch.</desc>
    <g id="Page-1" stroke="none" stroke-width="1" fill="none" fill-rule="evenodd">
        <g id="dribble-logo" fill="#6C757D" fill-rule="nonzero">
            <path d="M9.99056974,0 C4.48200393,0 0,4.48200393 0,9.99056974 C0,15.4991356 4.48200393,19.9811395 9.99056974,19.9811395 C15.4991356,19.9811395 19.9811395,15.4991356 19.9811395,9.99056974 C19.9811395,4.48200393 15.4990963,0 9.99056974,0 Z M16.5955599,4.60691552 C17.7844401,6.05929273 18.5025147,7.90880157 18.5212574,9.92314342 C18.2390177,9.86318271 15.4204322,9.29123772 12.5793713,9.64840864 L12.3957957,9.2075835 C12.2184676,8.79170923 12.0286444,8.37834971 11.8300982,7.97123772 C14.9858546,6.68369352 16.4157564,4.85041257 16.5955599,4.60691552 Z M9.99056974,1.46986248 C12.1585069,1.46986248 14.1403929,2.28282908 15.6464833,3.62031434 C15.4941454,3.83886051 14.210334,5.56471513 11.1757171,6.70239686 C9.77705305,4.13355599 8.22726916,2.02306483 7.99123772,1.70711198 C8.63308448,1.55229862 9.30247544,1.46986248 9.99056974,1.46986248 Z M6.36275049,2.28035363 C6.5875442,2.58880157 8.11233792,4.70180747 9.52601179,7.2156778 C5.53477407,8.27591356 2.01937132,8.26094303 1.63721022,8.25595285 C2.19041257,5.60719057 3.97500982,3.40679764 6.36275049,2.28035363 Z M1.45611002,10.0030648 L1.45984283,9.74204322 C1.83324165,9.75076621 5.96935167,9.803222 10.2290766,8.52817289 C10.4750884,9.0064833 10.707387,9.49225933 10.9221611,9.97681729 L10.5849902,10.0779568 C6.1853831,11.5003536 3.84385069,15.3792141 3.64903733,15.7088802 C2.28785855,14.1965815 1.45736739,12.1959921 1.45611002,10.0030648 Z M9.98931238,18.5362279 C8.01740668,18.5362279 6.19913556,17.8643615 4.75174853,16.735442 C4.90534381,16.423222 6.63371316,13.08389 11.4466798,11.4067191 L11.5028684,11.3879764 C12.7017289,14.5000393 13.1950098,17.1100589 13.3236542,17.8593713 C12.3008644,18.2952063 11.1732024,18.5374853 9.98931238,18.5362279 Z M14.7585462,17.0776031 C14.6711198,16.5580747 14.2153242,14.0604715 13.1013752,10.9933595 C15.7750884,10.5650295 18.1241257,11.2668369 18.4163458,11.3592534 C18.034224,13.7320236 16.6742633,15.7838507 14.7585462,17.0776031 Z" id="Shape"></path>
        </g>
    </g>
</svg>