<svg width="20" height="20" viewBox="0 0 20 20" fill="none" xmlns="http://www.w3.org/2000/svg">
<path fill-rule="evenodd" clip-rule="evenodd" d="M4.59538 13.3333L5.57872 12.3483C5.89372 12.0333 6.06705 11.615 6.06705 11.17V7.2725C6.06705 6.14167 6.55872 5.06083 7.41705 4.30917C8.28205 3.55083 9.38372 3.2175 10.5312 3.36833C12.4704 3.62583 13.9329 5.37917 13.9329 7.4475V11.17C13.9329 11.615 14.1062 12.0333 14.4204 12.3475L15.4045 13.3333H4.59538ZM11.6662 15.2842C11.6662 16.0333 10.9029 16.6667 9.99955 16.6667C9.09622 16.6667 8.33288 16.0333 8.33288 15.2842V15H11.6662V15.2842ZM17.1004 12.6733L15.5995 11.17V7.4475C15.5995 4.54667 13.5145 2.0825 10.7495 1.71667C9.14788 1.50333 7.53121 1.9925 6.31871 3.05583C5.09871 4.12416 4.40038 5.66083 4.40038 7.2725L4.39955 11.17L2.89871 12.6733C2.50788 13.065 2.39205 13.6475 2.60371 14.1583C2.81621 14.67 3.31038 15 3.86371 15H6.66621V15.2842C6.66621 16.9658 8.16121 18.3333 9.99955 18.3333C11.8379 18.3333 13.3329 16.9658 13.3329 15.2842V15H16.1354C16.6887 15 17.182 14.67 17.3937 14.1592C17.6062 13.6475 17.4912 13.0642 17.1004 12.6733V12.6733Z" fill="#5CB0FF"/>
<mask id="mask0" mask-type="alpha" maskUnits="userSpaceOnUse" x="2" y="1" width="16" height="18">
<path fill-rule="evenodd" clip-rule="evenodd" d="M4.59538 13.3333L5.57872 12.3483C5.89372 12.0333 6.06705 11.615 6.06705 11.17V7.2725C6.06705 6.14167 6.55872 5.06083 7.41705 4.30917C8.28205 3.55083 9.38372 3.2175 10.5312 3.36833C12.4704 3.62583 13.9329 5.37917 13.9329 7.4475V11.17C13.9329 11.615 14.1062 12.0333 14.4204 12.3475L15.4045 13.3333H4.59538ZM11.6662 15.2842C11.6662 16.0333 10.9029 16.6667 9.99955 16.6667C9.09622 16.6667 8.33288 16.0333 8.33288 15.2842V15H11.6662V15.2842ZM17.1004 12.6733L15.5995 11.17V7.4475C15.5995 4.54667 13.5145 2.0825 10.7495 1.71667C9.14788 1.50333 7.53121 1.9925 6.31871 3.05583C5.09871 4.12416 4.40038 5.66083 4.40038 7.2725L4.39955 11.17L2.89871 12.6733C2.50788 13.065 2.39205 13.6475 2.60371 14.1583C2.81621 14.67 3.31038 15 3.86371 15H6.66621V15.2842C6.66621 16.9658 8.16121 18.3333 9.99955 18.3333C11.8379 18.3333 13.3329 16.9658 13.3329 15.2842V15H16.1354C16.6887 15 17.182 14.67 17.3937 14.1592C17.6062 13.6475 17.4912 13.0642 17.1004 12.6733V12.6733Z" fill="white"/>
</mask>
<g mask="url(#mask0)">
<rect width="20" height="20" fill="#0D2B47"/>
</g>
</svg>
