<svg width="20" height="20" viewBox="0 0 20 20" fill="none" xmlns="http://www.w3.org/2000/svg">
<path fill-rule="evenodd" clip-rule="evenodd" d="M15.5753 13.3024L10.8337 15.5057V9.90908L15.8337 7.58658V12.9491C15.8337 13.0941 15.7353 13.2291 15.5753 13.3024V13.3024ZM4.41948 13.3032C4.26198 13.2299 4.16531 13.0949 4.16698 12.9432V7.58658L9.16698 9.90908V15.5074L4.41948 13.3032ZM9.75614 4.21991C9.83198 4.18408 9.91614 4.16658 10.0003 4.16658C10.0836 4.16658 10.1678 4.18408 10.2436 4.21991L14.6845 6.28158L10.0003 8.45825L5.31531 6.28158L9.75614 4.21991ZM17.2136 6.04907C17.2111 6.04241 17.212 6.03491 17.2086 6.02824C17.2061 6.02157 17.1995 6.01741 17.1953 6.01074C17.157 5.94741 17.1103 5.89157 17.0661 5.83324C17.0403 5.80491 17.0195 5.77324 16.9911 5.74907C16.7953 5.51907 16.5645 5.31657 16.2778 5.18407L10.9445 2.70657C10.9436 2.70657 10.9428 2.70657 10.9428 2.70574C10.3436 2.42907 9.65615 2.42991 9.05531 2.70657L3.72448 5.18324C3.43781 5.31574 3.20615 5.51741 3.01031 5.74741C2.97948 5.77324 2.95698 5.80824 2.92948 5.83907C2.88615 5.89491 2.84198 5.94907 2.80531 6.00907C2.80115 6.01657 2.79448 6.02157 2.79115 6.02824C2.78781 6.03574 2.78865 6.04324 2.78531 6.05074C2.60948 6.35241 2.50031 6.69157 2.50031 7.04824V12.9374C2.49365 13.7291 2.97031 14.4657 3.71531 14.8141L9.04781 17.2907C9.34948 17.4316 9.67281 17.5016 9.99698 17.5016C10.3203 17.5016 10.6436 17.4316 10.9445 17.2916L16.2753 14.8149C17.0186 14.4716 17.4995 13.7399 17.5003 12.9499V7.04741C17.4995 6.69074 17.3903 6.35157 17.2136 6.04907V6.04907Z" fill="#5CB0FF"/>
<mask id="mask0" mask-type="alpha" maskUnits="userSpaceOnUse" x="2" y="2" width="16" height="16">
<path fill-rule="evenodd" clip-rule="evenodd" d="M15.5753 13.3024L10.8337 15.5057V9.90908L15.8337 7.58658V12.9491C15.8337 13.0941 15.7353 13.2291 15.5753 13.3024V13.3024ZM4.41948 13.3032C4.26198 13.2299 4.16531 13.0949 4.16698 12.9432V7.58658L9.16698 9.90908V15.5074L4.41948 13.3032ZM9.75614 4.21991C9.83198 4.18408 9.91614 4.16658 10.0003 4.16658C10.0836 4.16658 10.1678 4.18408 10.2436 4.21991L14.6845 6.28158L10.0003 8.45825L5.31531 6.28158L9.75614 4.21991ZM17.2136 6.04907C17.2111 6.04241 17.212 6.03491 17.2086 6.02824C17.2061 6.02157 17.1995 6.01741 17.1953 6.01074C17.157 5.94741 17.1103 5.89157 17.0661 5.83324C17.0403 5.80491 17.0195 5.77324 16.9911 5.74907C16.7953 5.51907 16.5645 5.31657 16.2778 5.18407L10.9445 2.70657C10.9436 2.70657 10.9428 2.70657 10.9428 2.70574C10.3436 2.42907 9.65615 2.42991 9.05531 2.70657L3.72448 5.18324C3.43781 5.31574 3.20615 5.51741 3.01031 5.74741C2.97948 5.77324 2.95698 5.80824 2.92948 5.83907C2.88615 5.89491 2.84198 5.94907 2.80531 6.00907C2.80115 6.01657 2.79448 6.02157 2.79115 6.02824C2.78781 6.03574 2.78865 6.04324 2.78531 6.05074C2.60948 6.35241 2.50031 6.69157 2.50031 7.04824V12.9374C2.49365 13.7291 2.97031 14.4657 3.71531 14.8141L9.04781 17.2907C9.34948 17.4316 9.67281 17.5016 9.99698 17.5016C10.3203 17.5016 10.6436 17.4316 10.9445 17.2916L16.2753 14.8149C17.0186 14.4716 17.4995 13.7399 17.5003 12.9499V7.04741C17.4995 6.69074 17.3903 6.35157 17.2136 6.04907V6.04907Z" fill="white"/>
</mask>
<g mask="url(#mask0)">
<rect width="20" height="20" fill="#0D2B47"/>
</g>
</svg>
