<svg width="20" height="20" viewBox="0 0 20 20" fill="none" xmlns="http://www.w3.org/2000/svg">
<path fill-rule="evenodd" clip-rule="evenodd" d="M16.6667 3.33334H3.33333C2.8725 3.33334 2.5 3.70584 2.5 4.16668V6.66668C2.5 7.12751 2.8725 7.50001 3.33333 7.50001C3.79417 7.50001 4.16667 7.12751 4.16667 6.66668V5.00001H9.16667V15.8333H7.5C7.03917 15.8333 6.66667 16.2058 6.66667 16.6667C6.66667 17.1275 7.03917 17.5 7.5 17.5H12.5C12.9608 17.5 13.3333 17.1275 13.3333 16.6667C13.3333 16.2058 12.9608 15.8333 12.5 15.8333H10.8333V5.00001H15.8333V6.66668C15.8333 7.12751 16.2058 7.50001 16.6667 7.50001C17.1275 7.50001 17.5 7.12751 17.5 6.66668V4.16668C17.5 3.70584 17.1275 3.33334 16.6667 3.33334" fill="#5CB0FF"/>
<mask id="mask0" mask-type="alpha" maskUnits="userSpaceOnUse" x="2" y="3" width="16" height="15">
<path fill-rule="evenodd" clip-rule="evenodd" d="M16.6667 3.33334H3.33333C2.8725 3.33334 2.5 3.70584 2.5 4.16668V6.66668C2.5 7.12751 2.8725 7.50001 3.33333 7.50001C3.79417 7.50001 4.16667 7.12751 4.16667 6.66668V5.00001H9.16667V15.8333H7.5C7.03917 15.8333 6.66667 16.2058 6.66667 16.6667C6.66667 17.1275 7.03917 17.5 7.5 17.5H12.5C12.9608 17.5 13.3333 17.1275 13.3333 16.6667C13.3333 16.2058 12.9608 15.8333 12.5 15.8333H10.8333V5.00001H15.8333V6.66668C15.8333 7.12751 16.2058 7.50001 16.6667 7.50001C17.1275 7.50001 17.5 7.12751 17.5 6.66668V4.16668C17.5 3.70584 17.1275 3.33334 16.6667 3.33334" fill="white"/>
</mask>
<g mask="url(#mask0)">
<rect width="20" height="20" fill="#0D2B47"/>
</g>
</svg>
